<svg width="16" height="16" viewBox="0 0 16 16" fill="none" xmlns="http://www.w3.org/2000/svg">
<path d="M11.334 0.685871C11.9842 2.17619 12.1649 3.82927 11.8519 5.42486C11.5389 7.02045 10.7472 8.48279 9.58214 9.61705C8.4171 10.7513 6.9341 11.5036 5.33071 11.7738C3.72732 12.044 2.07967 11.8192 0.607278 11.1293C1.12446 12.3157 1.92176 13.359 2.93076 14.1696C3.93977 14.9802 5.13037 15.534 6.40041 15.7833C7.67046 16.0326 8.98203 15.9701 10.2226 15.6012C11.4632 15.2322 12.5957 14.5678 13.5231 13.6649C14.4505 12.762 15.145 11.6477 15.547 10.4174C15.949 9.18715 16.0466 7.87772 15.8313 6.60146C15.616 5.3252 15.0944 4.12021 14.3111 3.08988C13.5278 2.05954 12.5062 1.23462 11.334 0.685871Z" fill="black"/>
</svg>
